<svg width="93" height="62" viewBox="0 0 93 62" fill="none" xmlns="http://www.w3.org/2000/svg">
<rect width="51" height="62" fill="#B0907B"/>
<path d="M17.675 20.975C17.675 21.4917 17.7167 21.8667 17.8 22.1C17.8833 22.3333 18.0417 22.4917 18.275 22.575C18.525 22.6583 18.9167 22.7 19.45 22.7C19.5 22.7 19.525 22.75 19.525 22.85C19.525 22.95 19.5 23 19.45 23C18.9 23 18.4667 22.9917 18.15 22.975L16.25 22.95L14.4 22.975C14.0667 22.9917 13.6167 23 13.05 23C13.0167 23 13 22.95 13 22.85C13 22.75 13.0167 22.7 13.05 22.7C13.5833 22.7 13.975 22.6583 14.225 22.575C14.475 22.4917 14.6417 22.3333 14.725 22.1C14.825 21.85 14.875 21.475 14.875 20.975V9.4C14.875 8.9 14.825 8.53333 14.725 8.3C14.6417 8.06667 14.475 7.90833 14.225 7.825C13.975 7.725 13.5833 7.675 13.05 7.675C13.0167 7.675 13 7.625 13 7.525C13 7.425 13.0167 7.375 13.05 7.375L14.4 7.4C15.1667 7.43333 15.7833 7.45 16.25 7.45C16.7667 7.45 17.4083 7.43333 18.175 7.4L19.45 7.375C19.5 7.375 19.525 7.425 19.525 7.525C19.525 7.625 19.5 7.675 19.45 7.675C18.9333 7.675 18.55 7.725 18.3 7.825C18.05 7.925 17.8833 8.1 17.8 8.35C17.7167 8.58333 17.675 8.95 17.675 9.45V20.975ZM27.0699 23.325C26.2533 23.325 25.5366 23.2333 24.9199 23.05V27.85C24.9199 28.35 24.9699 28.7167 25.0699 28.95C25.1866 29.1833 25.3949 29.3417 25.6949 29.425C26.0116 29.525 26.4949 29.575 27.1449 29.575C27.1949 29.575 27.2199 29.625 27.2199 29.725C27.2199 29.825 27.1949 29.875 27.1449 29.875C26.5283 29.875 26.0449 29.8667 25.6949 29.85L23.7199 29.825L22.2449 29.85C21.9949 29.8667 21.6449 29.875 21.1949 29.875C21.1449 29.875 21.1199 29.825 21.1199 29.725C21.1199 29.625 21.1449 29.575 21.1949 29.575C21.5949 29.575 21.8866 29.525 22.0699 29.425C22.2699 29.3417 22.4033 29.1833 22.4699 28.95C22.5533 28.7167 22.5949 28.35 22.5949 27.85V16.275C22.5949 15.7417 22.5366 15.3583 22.4199 15.125C22.3033 14.8917 22.0949 14.775 21.7949 14.775C21.5283 14.775 21.1449 14.8917 20.6449 15.125H20.5949C20.5449 15.125 20.5033 15.0833 20.4699 15C20.4199 14.9167 20.4116 14.8667 20.4449 14.85L23.9949 13.125C24.0283 13.1083 24.0699 13.1 24.1199 13.1C24.2866 13.1 24.4366 13.2417 24.5699 13.525C24.7199 13.8083 24.8199 14.1917 24.8699 14.675C26.0866 13.575 27.3366 13.025 28.6199 13.025C29.3199 13.025 29.9699 13.2083 30.5699 13.575C31.1866 13.9417 31.6783 14.475 32.0449 15.175C32.4116 15.875 32.5949 16.6917 32.5949 17.625C32.5949 18.9583 32.3199 20.0583 31.7699 20.925C31.2199 21.775 30.5199 22.3917 29.6699 22.775C28.8366 23.1417 27.9699 23.325 27.0699 23.325ZM26.9699 14.425C26.2199 14.425 25.5366 14.6917 24.9199 15.225V15.425V21.45C25.2866 21.8667 25.6699 22.1833 26.0699 22.4C26.4699 22.6 26.9616 22.7 27.5449 22.7C29.2283 22.7 30.0699 21.2667 30.0699 18.4C30.0699 17.1333 29.7699 16.1583 29.1699 15.475C28.5866 14.775 27.8533 14.425 26.9699 14.425ZM45.8373 21.375C45.8873 21.375 45.929 21.4167 45.9623 21.5C46.0123 21.5833 46.0123 21.6333 45.9623 21.65L42.5123 23.325C42.479 23.3417 42.4373 23.35 42.3873 23.35C42.2206 23.35 42.0706 23.175 41.9373 22.825C41.8206 22.4583 41.754 21.9667 41.7373 21.35C40.6373 22.65 39.4456 23.3 38.1623 23.3C37.2456 23.3 36.5206 23.0167 35.9873 22.45C35.4706 21.8667 35.2123 21.1083 35.2123 20.175V16.5C35.2123 15.4167 34.954 14.875 34.4373 14.875C34.254 14.875 34.0456 14.9333 33.8123 15.05H33.7873C33.7206 15.05 33.6706 15.0083 33.6373 14.925C33.604 14.825 33.6123 14.7667 33.6623 14.75L37.0123 13.15L37.1373 13.125C37.2206 13.125 37.304 13.1667 37.3873 13.25C37.4873 13.3167 37.5373 13.3833 37.5373 13.45V18.975C37.5373 20.775 38.229 21.675 39.6123 21.675C39.979 21.675 40.3456 21.6 40.7123 21.45C41.0956 21.2833 41.4373 21.0583 41.7373 20.775V16.5C41.7373 15.4167 41.479 14.875 40.9623 14.875C40.779 14.875 40.5623 14.9333 40.3123 15.05H40.2873C40.2373 15.05 40.1956 15.0083 40.1623 14.925C40.129 14.825 40.1373 14.7667 40.1873 14.75L43.5373 13.15C43.5706 13.1333 43.6123 13.125 43.6623 13.125C43.7456 13.125 43.829 13.1667 43.9123 13.25C44.0123 13.3167 44.0623 13.3833 44.0623 13.45V20.1C44.0623 20.6667 44.1123 21.0667 44.2123 21.3C44.329 21.5333 44.5123 21.65 44.7623 21.65C44.9956 21.65 45.3373 21.5583 45.7873 21.375H45.8373ZM58.5594 22.7C58.5927 22.7 58.6094 22.75 58.6094 22.85C58.6094 22.95 58.5927 23 58.5594 23C58.0927 23 57.7344 22.9917 57.4844 22.975L56.0844 22.95L54.6094 22.975C54.3427 22.9917 53.976 23 53.5094 23C53.4594 23 53.4344 22.95 53.4344 22.85C53.4344 22.75 53.4594 22.7 53.5094 22.7C53.9094 22.7 54.201 22.6583 54.3844 22.575C54.5844 22.4917 54.7177 22.3333 54.7844 22.1C54.851 21.85 54.8844 21.475 54.8844 20.975V18.475H50.4844V20.975C50.4844 21.475 50.5177 21.85 50.5844 22.1C50.651 22.3333 50.776 22.4917 50.9594 22.575C51.1427 22.6583 51.4344 22.7 51.8344 22.7C51.8677 22.7 51.8844 22.75 51.8844 22.85C51.8844 22.95 51.8677 23 51.8344 23C51.3677 23 51.0094 22.9917 50.7594 22.975L49.3594 22.95L47.9094 22.975C47.6427 22.9917 47.2677 23 46.7844 23C46.7344 23 46.7094 22.95 46.7094 22.85C46.7094 22.75 46.7344 22.7 46.7844 22.7C47.1844 22.7 47.476 22.6583 47.6594 22.575C47.8594 22.4917 47.9927 22.3333 48.0594 22.1C48.126 21.85 48.1594 21.475 48.1594 20.975V16.5C48.1594 15.4167 47.901 14.875 47.3844 14.875C47.201 14.875 46.9844 14.9333 46.7344 15.05H46.7094C46.6594 15.05 46.6177 15.0083 46.5844 14.925C46.551 14.825 46.5594 14.7667 46.6094 14.75L49.9594 13.15C49.9927 13.1333 50.0344 13.125 50.0844 13.125C50.1677 13.125 50.251 13.1667 50.3344 13.25C50.4344 13.3167 50.4844 13.3833 50.4844 13.45V17.875H54.8844V16.5C54.8844 15.4167 54.626 14.875 54.1094 14.875C53.926 14.875 53.7094 14.9333 53.4594 15.05H53.4344C53.3844 15.05 53.3427 15.0083 53.3094 14.925C53.276 14.825 53.2844 14.7667 53.3344 14.75L56.6844 13.15C56.7177 13.1333 56.7594 13.125 56.8094 13.125C56.8927 13.125 56.976 13.1667 57.0594 13.25C57.1594 13.3167 57.2094 13.3833 57.2094 13.45V20.975C57.2094 21.475 57.2427 21.85 57.3094 22.1C57.376 22.3333 57.501 22.4917 57.6844 22.575C57.8677 22.6583 58.1594 22.7 58.5594 22.7ZM71.3418 21.375C71.3918 21.375 71.4335 21.4167 71.4668 21.5C71.5168 21.5833 71.5168 21.6333 71.4668 21.65L68.0168 23.325C67.9835 23.3417 67.9418 23.35 67.8918 23.35C67.7418 23.35 67.6001 23.2 67.4668 22.9C67.3501 22.6 67.2751 22.1917 67.2418 21.675C66.6918 22.1917 66.1418 22.6 65.5918 22.9C65.0418 23.1833 64.4335 23.325 63.7668 23.325C63.0835 23.325 62.4501 23.1583 61.8668 22.825C61.3001 22.475 60.8501 21.9667 60.5168 21.3C60.1835 20.6333 60.0168 19.8333 60.0168 18.9C60.0168 17.7167 60.2918 16.6833 60.8418 15.8C61.3918 14.9 62.1168 14.2167 63.0168 13.75C63.9168 13.2833 64.8835 13.05 65.9168 13.05C66.8168 13.05 67.6251 13.2667 68.3418 13.7C68.7251 13.5333 69.0501 13.3167 69.3168 13.05C69.3335 13.0333 69.3585 13.025 69.3918 13.025C69.4251 13.025 69.4585 13.0417 69.4918 13.075C69.5418 13.0917 69.5668 13.1167 69.5668 13.15V20.275C69.5668 20.775 69.6168 21.1333 69.7168 21.35C69.8335 21.55 70.0168 21.65 70.2668 21.65C70.4835 21.65 70.8251 21.5583 71.2918 21.375H71.3418ZM65.0418 22C65.7085 22 66.4335 21.7333 67.2168 21.2V20.95V15.8C67.2168 15.15 67.0335 14.6167 66.6668 14.2C66.3168 13.7833 65.8501 13.575 65.2668 13.575C64.4335 13.575 63.7751 13.9917 63.2918 14.825C62.8251 15.6583 62.5918 16.7333 62.5918 18.05C62.5918 19.3 62.8001 20.275 63.2168 20.975C63.6501 21.6583 64.2585 22 65.0418 22Z" fill="black"/>
<path d="M39.525 37.1C40.2583 37.1 41.025 37.1667 41.825 37.3C42.625 37.4167 43.25 37.575 43.7 37.775C43.85 37.825 43.9417 37.8917 43.975 37.975C44.025 38.0417 44.0667 38.1667 44.1 38.35L44.4 41.825C44.4 41.875 44.3583 41.9083 44.275 41.925C44.1917 41.9417 44.1417 41.9167 44.125 41.85C43.5583 40.5333 42.8 39.5167 41.85 38.8C40.9 38.0833 39.8 37.725 38.55 37.725C36.9 37.725 35.625 38.3333 34.725 39.55C33.825 40.7667 33.375 42.4 33.375 44.45C33.375 45.9833 33.6167 47.3833 34.1 48.65C34.6 49.9167 35.2917 50.925 36.175 51.675C37.075 52.4083 38.0917 52.775 39.225 52.775C40.2917 52.775 41.2417 52.425 42.075 51.725C42.925 51.0083 43.6833 49.925 44.35 48.475C44.3667 48.4083 44.4167 48.3833 44.5 48.4C44.6 48.4167 44.65 48.45 44.65 48.5L44.275 51.9C44.2417 52.1 44.2 52.2333 44.15 52.3C44.1167 52.35 44.025 52.4083 43.875 52.475C42.3917 53.025 40.8667 53.3 39.3 53.3C37.2667 53.3 35.5667 52.9 34.2 52.1C32.8333 51.2833 31.825 50.2583 31.175 49.025C30.5417 47.775 30.225 46.475 30.225 45.125C30.225 43.5417 30.65 42.1417 31.5 40.925C32.3667 39.7083 33.5083 38.7667 34.925 38.1C36.3583 37.4333 37.8917 37.1 39.525 37.1ZM56.7486 43.35C56.782 43.35 56.7986 43.4 56.7986 43.5C56.7986 43.6 56.782 43.65 56.7486 43.65C56.2153 43.65 55.7486 43.8833 55.3486 44.35C54.9653 44.8 54.6153 45.4583 54.2986 46.325L51.5236 53.7C50.6403 56.0333 49.7903 57.6667 48.9736 58.6C48.1736 59.55 47.282 60.025 46.2986 60.025C45.7986 60.025 45.4153 59.9167 45.1486 59.7C44.882 59.5 44.7486 59.2 44.7486 58.8C44.7486 58.4167 44.8653 58.125 45.0986 57.925C45.332 57.725 45.6153 57.625 45.9486 57.625C46.132 57.625 46.282 57.65 46.3986 57.7C46.532 57.75 46.6903 57.8333 46.8736 57.95C47.1903 58.1667 47.4903 58.275 47.7736 58.275C48.157 58.275 48.4986 58.125 48.7986 57.825C49.1153 57.5417 49.4403 57.0583 49.7736 56.375C50.107 55.7083 50.507 54.75 50.9736 53.5L46.9736 45.425C46.607 44.7083 46.3153 44.2333 46.0986 44C45.8986 43.7667 45.6486 43.65 45.3486 43.65C45.2986 43.65 45.2736 43.6 45.2736 43.5C45.2736 43.4 45.2986 43.35 45.3486 43.35C45.8153 43.35 46.1736 43.3583 46.4236 43.375L47.4736 43.4L49.1986 43.375C49.4653 43.3583 49.8236 43.35 50.2736 43.35C50.3236 43.35 50.3486 43.4 50.3486 43.5C50.3486 43.6 50.3236 43.65 50.2736 43.65C49.8403 43.65 49.5236 43.6917 49.3236 43.775C49.1236 43.8417 49.0236 43.9583 49.0236 44.125C49.0236 44.2583 49.0736 44.425 49.1736 44.625L52.1236 50.65L53.6236 46.3C53.7736 45.8667 53.8486 45.475 53.8486 45.125C53.8486 44.6583 53.7153 44.3 53.4486 44.05C53.182 43.7833 52.7986 43.65 52.2986 43.65C52.2653 43.65 52.2486 43.6 52.2486 43.5C52.2486 43.4 52.2653 43.35 52.2986 43.35C52.7486 43.35 53.0903 43.3583 53.3236 43.375L54.8236 43.4L55.8236 43.375C56.0236 43.3583 56.332 43.35 56.7486 43.35ZM67.2926 52.7C67.3426 52.7 67.3676 52.75 67.3676 52.85C67.3676 52.95 67.3426 53 67.2926 53L66.3926 52.975C66.1759 52.9583 65.8676 52.95 65.4676 52.95L63.6926 52.975C63.4259 52.9917 63.0592 53 62.5926 53C62.5426 53 62.5176 52.95 62.5176 52.85C62.5176 52.75 62.5426 52.7 62.5926 52.7C62.9592 52.7 63.1426 52.5833 63.1426 52.35C63.1426 52.1667 63.0592 51.9583 62.8926 51.725L61.2676 49.275L60.3926 50.55C60.0092 51.1 59.8176 51.5667 59.8176 51.95C59.8176 52.45 60.1842 52.7 60.9176 52.7C60.9676 52.7 60.9926 52.75 60.9926 52.85C60.9926 52.95 60.9676 53 60.9176 53C60.4676 53 60.1342 52.9917 59.9176 52.975L58.4176 52.95L57.3926 52.975C57.2092 52.9917 56.9092 53 56.4926 53C56.4426 53 56.4176 52.95 56.4176 52.85C56.4176 52.75 56.4426 52.7 56.4926 52.7C57.0092 52.7 57.5592 52.4917 58.1426 52.075C58.7259 51.6583 59.2759 51.0917 59.7926 50.375L60.9426 48.8L58.6926 45.425C57.9092 44.2417 57.2592 43.65 56.7426 43.65C56.7092 43.65 56.6926 43.6 56.6926 43.5C56.6926 43.4 56.7092 43.35 56.7426 43.35C57.0926 43.35 57.3509 43.3583 57.5176 43.375L58.2926 43.4L60.0426 43.375C60.3092 43.3583 60.6842 43.35 61.1676 43.35C61.2009 43.35 61.2176 43.4 61.2176 43.5C61.2176 43.6 61.2009 43.65 61.1676 43.65C60.8009 43.65 60.6176 43.775 60.6176 44.025C60.6176 44.1917 60.7009 44.3917 60.8676 44.625L62.3176 46.825L63.0176 45.8C63.4176 45.2167 63.6176 44.75 63.6176 44.4C63.6176 43.9 63.2426 43.65 62.4926 43.65C62.4592 43.65 62.4426 43.6 62.4426 43.5C62.4426 43.4 62.4592 43.35 62.4926 43.35C62.9426 43.35 63.2842 43.3583 63.5176 43.375L65.0176 43.4L66.0426 43.375C66.2259 43.3583 66.5259 43.35 66.9426 43.35C66.9926 43.35 67.0176 43.4 67.0176 43.5C67.0176 43.6 66.9926 43.65 66.9426 43.65C66.4259 43.65 65.8759 43.8583 65.2926 44.275C64.7092 44.6917 64.1592 45.2583 63.6426 45.975L62.6426 47.3L65.0426 50.925C65.4426 51.525 65.8342 51.975 66.2176 52.275C66.6176 52.5583 66.9759 52.7 67.2926 52.7ZM79.5283 51.375C79.5783 51.375 79.62 51.4167 79.6533 51.5C79.7033 51.5833 79.7033 51.6333 79.6533 51.65L76.2033 53.325C76.17 53.3417 76.1283 53.35 76.0783 53.35C75.9283 53.35 75.7867 53.2 75.6533 52.9C75.5367 52.6 75.4617 52.1917 75.4283 51.675C74.8783 52.1917 74.3283 52.6 73.7783 52.9C73.2283 53.1833 72.62 53.325 71.9533 53.325C71.27 53.325 70.6367 53.1583 70.0533 52.825C69.4867 52.475 69.0367 51.9667 68.7033 51.3C68.37 50.6333 68.2033 49.8333 68.2033 48.9C68.2033 47.7167 68.4783 46.6833 69.0283 45.8C69.5783 44.9 70.3033 44.2167 71.2033 43.75C72.1033 43.2833 73.07 43.05 74.1033 43.05C75.0033 43.05 75.8117 43.2667 76.5283 43.7C76.9117 43.5333 77.2367 43.3167 77.5033 43.05C77.52 43.0333 77.545 43.025 77.5783 43.025C77.6117 43.025 77.645 43.0417 77.6783 43.075C77.7283 43.0917 77.7533 43.1167 77.7533 43.15V50.275C77.7533 50.775 77.8033 51.1333 77.9033 51.35C78.02 51.55 78.2033 51.65 78.4533 51.65C78.67 51.65 79.0117 51.5583 79.4783 51.375H79.5283ZM73.2283 52C73.895 52 74.62 51.7333 75.4033 51.2V50.95V45.8C75.4033 45.15 75.22 44.6167 74.8533 44.2C74.5033 43.7833 74.0367 43.575 73.4533 43.575C72.62 43.575 71.9617 43.9917 71.4783 44.825C71.0117 45.6583 70.7783 46.7333 70.7783 48.05C70.7783 49.3 70.9867 50.275 71.4033 50.975C71.8367 51.6583 72.445 52 73.2283 52ZM92.2342 52.7C92.2675 52.7 92.2842 52.75 92.2842 52.85C92.2842 52.95 92.2675 53 92.2342 53C91.7675 53 91.4092 52.9917 91.1592 52.975L89.7592 52.95L88.2842 52.975C88.0175 52.9917 87.6508 53 87.1842 53C87.1342 53 87.1092 52.95 87.1092 52.85C87.1092 52.75 87.1342 52.7 87.1842 52.7C87.5842 52.7 87.8758 52.6583 88.0592 52.575C88.2592 52.4917 88.3925 52.3333 88.4592 52.1C88.5258 51.85 88.5592 51.475 88.5592 50.975V48.475H84.1592V50.975C84.1592 51.475 84.1925 51.85 84.2592 52.1C84.3258 52.3333 84.4508 52.4917 84.6342 52.575C84.8175 52.6583 85.1092 52.7 85.5092 52.7C85.5425 52.7 85.5592 52.75 85.5592 52.85C85.5592 52.95 85.5425 53 85.5092 53C85.0425 53 84.6842 52.9917 84.4342 52.975L83.0342 52.95L81.5842 52.975C81.3175 52.9917 80.9425 53 80.4592 53C80.4092 53 80.3842 52.95 80.3842 52.85C80.3842 52.75 80.4092 52.7 80.4592 52.7C80.8592 52.7 81.1508 52.6583 81.3342 52.575C81.5342 52.4917 81.6675 52.3333 81.7342 52.1C81.8008 51.85 81.8342 51.475 81.8342 50.975V46.5C81.8342 45.4167 81.5758 44.875 81.0592 44.875C80.8758 44.875 80.6592 44.9333 80.4092 45.05H80.3842C80.3342 45.05 80.2925 45.0083 80.2592 44.925C80.2258 44.825 80.2342 44.7667 80.2842 44.75L83.6342 43.15C83.6675 43.1333 83.7092 43.125 83.7592 43.125C83.8425 43.125 83.9258 43.1667 84.0092 43.25C84.1092 43.3167 84.1592 43.3833 84.1592 43.45V47.875H88.5592V46.5C88.5592 45.4167 88.3008 44.875 87.7842 44.875C87.6008 44.875 87.3842 44.9333 87.1342 45.05H87.1092C87.0592 45.05 87.0175 45.0083 86.9842 44.925C86.9508 44.825 86.9592 44.7667 87.0092 44.75L90.3592 43.15C90.3925 43.1333 90.4342 43.125 90.4842 43.125C90.5675 43.125 90.6508 43.1667 90.7342 43.25C90.8342 43.3167 90.8842 43.3833 90.8842 43.45V50.975C90.8842 51.475 90.9175 51.85 90.9842 52.1C91.0508 52.3333 91.1758 52.4917 91.3592 52.575C91.5425 52.6583 91.8342 52.7 92.2342 52.7Z" fill="black"/>
</svg>
